<svg width="25" height="25" viewBox="0 0 25 25" fill="none" xmlns="http://www.w3.org/2000/svg">
<path fill-rule="evenodd" clip-rule="evenodd" d="M9.02767 9.80954C8.67433 9.80954 8.32445 9.87913 7.99801 10.0143C7.67157 10.1496 7.37496 10.3478 7.12511 10.5976C6.87526 10.8475 6.67707 11.1441 6.54186 11.4705C6.40664 11.7969 6.33705 12.1468 6.33705 12.5002C6.33705 12.8535 6.40664 13.2034 6.54186 13.5298C6.67707 13.8563 6.87526 14.1529 7.12511 14.4027C7.37496 14.6526 7.67157 14.8508 7.99801 14.986C8.32445 15.1212 8.67433 15.1908 9.02767 15.1908H11.7183V12.5543C11.7179 12.5182 11.7179 12.4821 11.7183 12.446V9.80954H9.02767ZM11.7183 8.24704H9.02767C8.31393 8.24704 7.62943 7.96351 7.12474 7.45882C6.62006 6.95413 6.33652 6.26963 6.33652 5.55589C6.33652 4.84216 6.62006 4.15765 7.12474 3.65296C7.62943 3.14828 8.31393 2.86475 9.02767 2.86475H11.7183V8.24704ZM13.2808 2.86475V8.24704H15.9714C16.676 8.23318 17.347 7.94355 17.8404 7.44037C18.3338 6.9372 18.6101 6.2606 18.6101 5.55589C18.6101 4.85119 18.3338 4.17459 17.8404 3.67141C17.347 3.16823 16.676 2.87861 15.9714 2.86475H13.2808ZM15.9714 9.8085C15.2652 9.80841 14.5872 10.086 14.0838 10.5814C13.5804 11.0768 13.292 11.7502 13.2808 12.4564V12.5429C13.2894 13.0731 13.4545 13.5889 13.7554 14.0256C14.0562 14.4623 14.4794 14.8003 14.9717 14.9973C15.4641 15.1942 16.0036 15.2413 16.5226 15.1326C17.0417 15.0239 17.517 14.7643 17.8889 14.3863C18.2608 14.0083 18.5128 13.5289 18.6131 13.0082C18.7134 12.4875 18.6576 11.9487 18.4528 11.4596C18.2479 10.9705 17.9031 10.5528 17.4616 10.2591C17.0201 9.96533 16.5017 9.80857 15.9714 9.8085ZM9.02767 16.7533C8.49526 16.7531 7.97476 16.9108 7.53198 17.2064C7.0892 17.502 6.74404 17.9224 6.54015 18.4142C6.33627 18.906 6.28281 19.4472 6.38655 19.9694C6.4903 20.4916 6.74657 20.9713 7.12296 21.3479C7.49936 21.7244 7.97897 21.9809 8.50113 22.0848C9.02329 22.1888 9.56455 22.1355 10.0564 21.9318C10.5483 21.7281 10.9688 21.3831 11.2646 20.9405C11.5604 20.4978 11.7183 19.9774 11.7183 19.445V16.7533H9.02767Z" fill="white"/>
</svg>
