<svg width="523" height="330" viewBox="0 0 523 330" fill="none" xmlns="http://www.w3.org/2000/svg">
<g clip-path="url(#clip0_192_3143)">
<rect width="523" height="330" rx="15" fill="#E7E7F2"/>
<path opacity="0.2" d="M65.9859 112.681C64.2934 118.382 61.621 123.148 57.9688 126.979C54.3165 130.809 49.9962 133.66 45.0077 135.53C40.0193 137.401 34.5409 138.336 28.5726 138.336C19.8428 138.336 12.2711 136.51 5.8574 132.858C-0.467226 129.206 -5.36659 123.994 -8.84068 117.224C-12.2257 110.454 -13.9182 102.348 -13.9182 92.9058C-13.9182 83.4634 -12.2257 75.3571 -8.84068 68.5871C-5.36659 61.8171 -0.467226 56.606 5.8574 52.9537C12.2711 49.3015 19.7538 47.4753 28.3054 47.4753C34.3628 47.4753 39.8411 48.3216 44.7405 50.0141C49.6399 51.6175 53.7821 54.1117 57.1671 57.4967C60.6412 60.8818 63.1799 65.1576 64.7833 70.3242L48.081 77.406C46.5666 72.0612 44.2506 68.2753 41.1328 66.0484C38.015 63.7323 34.0065 62.5743 29.1071 62.5743C24.2968 62.5743 20.0655 63.7323 16.4133 66.0484C12.8501 68.3644 10.0887 71.794 8.12892 76.337C6.16918 80.791 5.18931 86.3139 5.18931 92.9058C5.18931 99.4085 6.0801 104.931 7.86169 109.475C9.73235 114.018 12.4493 117.447 16.0124 119.763C19.5756 122.079 23.9405 123.237 29.1071 123.237C33.9174 123.237 38.0596 121.946 41.5337 119.362C45.0968 116.779 47.591 112.86 49.0163 107.604L65.9859 112.681ZM97.8697 40.928V116.423C97.8697 119.54 98.4042 121.723 99.4731 122.97C100.542 124.217 102.324 124.841 104.818 124.841C106.332 124.841 107.579 124.752 108.559 124.573C109.539 124.306 110.786 123.95 112.301 123.504L110.697 135.53C109.183 136.421 107.268 137.089 104.951 137.534C102.725 138.069 100.498 138.336 98.2705 138.336C91.7677 138.336 87.002 136.777 83.9733 133.66C81.0337 130.453 79.5639 125.375 79.5639 118.427V40.928H97.8697ZM152.966 68.8543C159.736 68.8543 165.659 70.2351 170.737 72.9965C175.903 75.758 179.912 79.722 182.763 84.8886C185.702 90.0552 187.172 96.2908 187.172 103.595C187.172 110.811 185.702 117.046 182.763 122.302C179.912 127.469 175.903 131.433 170.737 134.194C165.659 136.955 159.736 138.336 152.966 138.336C146.285 138.336 140.361 136.955 135.194 134.194C130.028 131.433 125.975 127.469 123.035 122.302C120.184 117.046 118.759 110.811 118.759 103.595C118.759 96.2908 120.184 90.0552 123.035 84.8886C125.975 79.722 130.028 75.758 135.194 72.9965C140.361 70.2351 146.285 68.8543 152.966 68.8543ZM152.966 82.4835C149.581 82.4835 146.685 83.2852 144.28 84.8886C141.964 86.403 140.183 88.719 138.936 91.8368C137.688 94.9546 137.065 98.8741 137.065 103.595C137.065 108.316 137.688 112.236 138.936 115.354C140.183 118.472 141.964 120.832 144.28 122.436C146.685 123.95 149.581 124.707 152.966 124.707C156.261 124.707 159.067 123.95 161.384 122.436C163.789 120.832 165.615 118.472 166.862 115.354C168.109 112.236 168.733 108.316 168.733 103.595C168.733 98.8741 168.109 94.9546 166.862 91.8368C165.615 88.719 163.789 86.403 161.384 84.8886C159.067 83.2852 156.261 82.4835 152.966 82.4835ZM225.739 138.336C221.285 138.336 217.276 137.534 213.713 135.931C210.15 134.328 207.299 131.789 205.161 128.315C203.113 124.752 202.088 120.164 202.088 114.552V70.1905H220.394V110.143C220.394 115.309 221.463 118.917 223.601 120.966C225.739 122.925 228.812 123.905 232.821 123.905C234.691 123.905 236.517 123.594 238.299 122.97C240.081 122.257 241.639 121.188 242.976 119.763C244.401 118.338 245.514 116.512 246.316 114.285C247.118 111.969 247.519 109.252 247.519 106.134V70.1905H265.824V137H249.523L248.855 125.375C246.628 129.829 243.555 133.125 239.635 135.263C235.805 137.312 231.173 138.336 225.739 138.336ZM310.341 138.336C304.819 138.336 299.875 136.955 295.51 134.194C291.234 131.433 287.849 127.469 285.355 122.302C282.95 117.135 281.747 110.944 281.747 103.729C281.747 96.3353 283.039 90.0552 285.622 84.8886C288.205 79.6329 291.679 75.6689 296.044 72.9965C300.498 70.2351 305.487 68.8543 311.01 68.8543C316.889 68.8543 321.744 70.5469 325.574 73.9319C329.404 77.3169 331.899 81.6818 333.057 87.0265L331.32 89.1644V40.928H349.625V137H333.19L331.988 116.69L334.259 117.759C333.636 121.946 332.21 125.598 329.983 128.716C327.756 131.744 324.95 134.105 321.565 135.797C318.18 137.49 314.439 138.336 310.341 138.336ZM315.686 124.306C318.893 124.306 321.655 123.504 323.971 121.901C326.287 120.209 328.068 117.759 329.315 114.552C330.652 111.345 331.32 107.515 331.32 103.061C331.32 98.785 330.696 95.1773 329.449 92.2377C328.202 89.209 326.42 86.8929 324.104 85.2895C321.788 83.6861 319.071 82.8843 315.953 82.8843C310.965 82.8843 307.046 84.6659 304.195 88.2291C301.434 91.7032 300.053 96.8252 300.053 103.595C300.053 110.365 301.434 115.532 304.195 119.095C306.956 122.569 310.787 124.306 315.686 124.306ZM430.726 163.724C425.381 163.724 420.526 162.788 416.161 160.918C411.886 159.136 408.501 156.286 406.006 152.366C403.512 148.447 402.265 143.458 402.265 137.401C402.265 135.976 402.399 134.461 402.666 132.858C403.022 131.254 403.557 129.695 404.269 128.181L416.295 126.31C415.671 127.914 415.182 129.384 414.825 130.72C414.558 131.967 414.424 133.125 414.424 134.194C414.424 138.292 415.182 141.409 416.696 143.547C418.21 145.685 420.215 147.155 422.709 147.957C425.203 148.758 427.964 149.159 430.993 149.159C434.645 149.159 437.763 148.714 440.346 147.823C443.019 147.021 445.246 145.863 447.027 144.349L450.368 158.112C448.141 159.893 445.157 161.274 441.415 162.254C437.763 163.234 434.2 163.724 430.726 163.724ZM408.812 47.4753C417.542 47.4753 425.069 49.3015 431.394 52.9537C437.719 56.606 442.573 61.8171 445.958 68.5871C449.433 75.3571 451.17 83.4634 451.17 92.9058C451.17 102.348 449.433 110.454 445.958 117.224C442.573 123.994 437.719 129.206 431.394 132.858C425.069 136.51 417.542 138.336 408.812 138.336C400.083 138.336 392.511 136.51 386.097 132.858C379.773 129.206 374.873 123.994 371.399 117.224C368.014 110.454 366.322 102.348 366.322 92.9058C366.322 83.4634 368.014 75.3571 371.399 68.5871C374.873 61.8171 379.773 56.606 386.097 52.9537C392.511 49.3015 400.083 47.4753 408.812 47.4753ZM408.812 62.5743C403.824 62.5743 399.593 63.7323 396.119 66.0484C392.644 68.3644 389.972 71.794 388.101 76.337C386.32 80.791 385.429 86.3139 385.429 92.9058C385.429 99.4085 386.32 104.931 388.101 109.475C389.972 114.018 392.644 117.447 396.119 119.763C399.593 122.079 403.824 123.237 408.812 123.237C413.712 123.237 417.898 122.079 421.373 119.763C424.847 117.447 427.474 114.018 429.256 109.475C431.127 104.931 432.062 99.4085 432.062 92.9058C432.062 86.3139 431.127 80.791 429.256 76.337C427.474 71.794 424.847 68.3644 421.373 66.0484C417.898 63.7323 413.712 62.5743 408.812 62.5743ZM543.072 137H523.965L516.616 115.487H482.81L475.461 137H456.621L488.823 48.8115H510.87L543.072 137ZM486.952 101.858H512.473L499.646 63.376L486.952 101.858Z" fill="#094067"/>
</g>
<defs>
<clipPath id="clip0_192_3143">
<rect width="523" height="330" rx="15" fill="white"/>
</clipPath>
</defs>
</svg>
