<svg width="91" height="91" viewBox="0 0 91 91" fill="none" xmlns="http://www.w3.org/2000/svg">
<path d="M71.738 15.4772H19.2941C16.3136 15.4772 13.4551 16.6612 11.3476 18.7687C9.24006 20.8762 8.05606 23.7347 8.05606 26.7152V64.1751C8.05606 67.1556 9.24006 70.0141 11.3476 72.1216C13.4551 74.2291 16.3136 75.4131 19.2941 75.4131H71.738C74.7185 75.4131 77.577 74.2291 79.6845 72.1216C81.792 70.0141 82.976 67.1556 82.976 64.1751V26.7152C82.976 23.7347 81.792 20.8762 79.6845 18.7687C77.577 16.6612 74.7185 15.4772 71.738 15.4772V15.4772ZM71.738 22.9692L47.389 39.7138C46.8196 40.0426 46.1736 40.2156 45.516 40.2156C44.8585 40.2156 44.2125 40.0426 43.643 39.7138L19.2941 22.9692H71.738Z" fill="#EF4565"/>
</svg>
