<svg width="28" height="28" viewBox="0 0 28 28" fill="none" xmlns="http://www.w3.org/2000/svg">
<path d="M14.8699 20.4485C14.9919 20.5701 15.0887 20.7145 15.1548 20.8736C15.2208 21.0326 15.2548 21.2032 15.2548 21.3754C15.2548 21.5476 15.2208 21.7181 15.1548 21.8772C15.0887 22.0362 14.9919 22.1807 14.8699 22.3022L14.2222 22.95C12.9949 24.1773 11.3302 24.8668 9.59445 24.8668C7.8587 24.8668 6.19405 24.1773 4.96669 22.95C3.73933 21.7226 3.0498 20.0579 3.0498 18.3222C3.0498 16.5864 3.73933 14.9218 4.96669 13.6944L7.59679 11.0654C8.77607 9.88321 10.3627 9.19666 12.0318 9.14638C13.7009 9.09611 15.326 9.68591 16.5743 10.795C16.7031 10.9095 16.8082 11.0484 16.8834 11.2035C16.9587 11.3587 17.0026 11.5271 17.0127 11.6993C17.0228 11.8714 16.999 12.0438 16.9424 12.2067C16.8859 12.3696 16.7979 12.5198 16.6833 12.6487C16.5688 12.7776 16.4299 12.8826 16.2748 12.9579C16.1196 13.0331 15.9512 13.077 15.779 13.0871C15.6069 13.0973 15.4345 13.0734 15.2715 13.0169C15.1086 12.9604 14.9585 12.8723 14.8296 12.7577C14.081 12.0929 13.1068 11.7393 12.106 11.7691C11.1053 11.7989 10.1538 12.2099 9.44616 12.918L6.81823 15.5438C6.08193 16.2801 5.66828 17.2787 5.66828 18.32C5.66828 19.3613 6.08193 20.3599 6.81823 21.0962C7.55453 21.8325 8.55317 22.2462 9.59445 22.2462C10.6357 22.2462 11.6344 21.8325 12.3707 21.0962L13.0184 20.4485C13.1399 20.3269 13.2842 20.2303 13.4431 20.1645C13.6019 20.0986 13.7722 20.0647 13.9442 20.0647C14.1161 20.0647 14.2864 20.0986 14.4452 20.1645C14.6041 20.2303 14.7484 20.3269 14.8699 20.4485ZM22.9478 4.96447C21.7194 3.739 20.0552 3.05078 18.32 3.05078C16.5849 3.05078 14.9206 3.739 13.6923 4.96447L13.0446 5.61219C12.7987 5.85801 12.6606 6.19141 12.6606 6.53905C12.6606 6.88669 12.7987 7.22009 13.0446 7.46591C13.2904 7.71173 13.6238 7.84983 13.9714 7.84983C14.3191 7.84983 14.6525 7.71173 14.8983 7.46591L15.546 6.8182C16.2823 6.0819 17.2809 5.66825 18.3222 5.66825C19.3635 5.66825 20.3621 6.0819 21.0984 6.8182C21.8347 7.5545 22.2484 8.55313 22.2484 9.59442C22.2484 10.6357 21.8347 11.6343 21.0984 12.3706L18.4694 15.0008C17.7611 15.7086 16.8091 16.119 15.8081 16.148C14.8072 16.177 13.833 15.8224 13.0849 15.1567C12.956 15.0421 12.8058 14.9541 12.6429 14.8976C12.48 14.841 12.3076 14.8172 12.1355 14.8273C11.9633 14.8374 11.7949 14.8813 11.6397 14.9566C11.4846 15.0318 11.3457 15.1368 11.2312 15.2657C11.1166 15.3946 11.0286 15.5448 10.9721 15.7077C10.9155 15.8706 10.8917 16.043 10.9018 16.2152C10.9119 16.3873 10.9558 16.5558 11.0311 16.7109C11.1063 16.8661 11.2113 17.0049 11.3402 17.1194C12.5877 18.2283 14.2117 18.8184 15.8799 18.7692C17.5482 18.7199 19.1346 18.035 20.3144 16.8545L22.9445 14.2255C24.1714 12.9974 24.8609 11.3327 24.8615 9.59673C24.8621 7.86081 24.1738 6.19558 22.9478 4.96666V4.96447Z" fill="white"/>
</svg>
