<svg width="77" height="76" viewBox="0 0 77 76" fill="none" xmlns="http://www.w3.org/2000/svg">
<path d="M28.8608 34.8351C31.3624 34.8351 33.8078 34.0933 35.8878 32.7035C37.9677 31.3137 39.5889 29.3384 40.5462 27.0272C41.5035 24.7161 41.754 22.1729 41.2659 19.7194C40.7779 17.2659 39.5733 15.0123 37.8044 13.2434C36.0355 11.4745 33.7819 10.2699 31.3284 9.78185C28.8749 9.29382 26.3317 9.5443 24.0206 10.5016C21.7094 11.4589 19.7341 13.0801 18.3443 15.16C16.9545 17.24 16.2127 19.6854 16.2127 22.187C16.2127 25.5415 17.5452 28.7586 19.9172 31.1306C22.2892 33.5026 25.5063 34.8351 28.8608 34.8351ZM54.1571 41.1592C56.0333 41.1592 57.8673 40.6028 59.4273 39.5605C60.9873 38.5182 62.2032 37.0366 62.9212 35.3033C63.6391 33.5699 63.827 31.6626 63.461 29.8224C63.0949 27.9823 62.1915 26.292 60.8648 24.9654C59.5382 23.6387 57.8479 22.7353 56.0078 22.3692C54.1676 22.0032 52.2603 22.1911 50.5269 22.9091C48.7936 23.627 47.3121 24.8429 46.2697 26.4029C45.2274 27.9629 44.671 29.7969 44.671 31.6731C44.671 34.189 45.6704 36.6018 47.4494 38.3808C49.2284 40.1598 51.6413 41.1592 54.1571 41.1592ZM66.8053 63.2935C67.6439 63.2935 68.4482 62.9603 69.0412 62.3673C69.6342 61.7743 69.9673 60.97 69.9673 60.1314C69.9648 57.1762 69.134 54.2808 67.5693 51.7738C66.0045 49.2668 63.7684 47.2485 61.1147 45.948C58.461 44.6475 55.4959 44.1168 52.5558 44.4161C49.6158 44.7154 46.8185 45.8328 44.4813 47.6414C41.3841 44.5563 37.4428 42.4575 33.1543 41.6095C28.8659 40.7616 24.4223 41.2025 20.3841 42.8766C16.3459 44.5507 12.8938 47.3831 10.4633 51.0166C8.0327 54.6501 6.73248 58.922 6.72656 63.2935C6.72656 64.1321 7.0597 64.9364 7.6527 65.5294C8.2457 66.1224 9.04998 66.4555 9.8886 66.4555H47.833C48.6717 66.4555 49.4759 66.1224 50.0689 65.5294C50.6619 64.9364 50.9951 64.1321 50.9951 63.2935" fill="#EF4565"/>
</svg>
